<?xml version="1.0" encoding="utf-8"?>
<!-- Generator: Adobe Illustrator 27.5.0, SVG Export Plug-In . SVG Version: 6.00 Build 0)  -->
<svg version="1.1" id="Layer_1" xmlns="http://www.w3.org/2000/svg" xmlns:xlink="http://www.w3.org/1999/xlink" x="0px" y="0px"
	 viewBox="0 0 2019.653 2631.176" style="enable-background:new 0 0 2019.653 2631.176;" xml:space="preserve">
<g>
	<g>
		<g>
			<g>
				<path style="fill:#FFFFFF;" d="M1021.73,368.709c0,0-63.52-261.821-911.572-327.073l155.391,919.396l735.98,255.053
					L1021.73,368.709z"/>
				<path style="fill:#231F20;" d="M1001.529,1218.253c-0.239,0-0.478-0.04-0.709-0.119L264.84,963.083
					c-0.75-0.261-1.296-0.909-1.429-1.688L108.019,41.999c-0.11-0.659,0.087-1.332,0.538-1.825c0.451-0.493,1.085-0.754,1.768-0.699
					c193.569,14.894,361.997,41.373,500.601,78.701c110.976,29.887,203.216,66.765,274.159,109.61
					c121.265,73.236,138.096,137.702,138.752,140.412c0.044,0.185,0.066,0.373,0.061,0.561l-20.202,847.376
					c-0.017,0.692-0.364,1.336-0.932,1.73C1002.397,1218.122,1001.966,1218.253,1001.529,1218.253z M267.474,959.405
					l731.959,253.659l20.123-844.096c-0.607-2.17-5.429-17.97-23.082-41.346c-17.506-23.181-51.558-58.751-114.368-96.568
					c-70.66-42.542-162.533-79.182-273.065-108.895C471.503,85.185,304.551,58.897,112.759,44.012L267.474,959.405z"/>
			</g>
			<g>
				<path style="fill:#FFFFFF;" d="M1021.399,382.633c0,0-82.612-262.517-930.664-327.768l174.815,906.167l735.98,255.053
					L1021.399,382.633z"/>
				<path style="fill:#231F20;" d="M1001.529,1218.253c-0.239,0-0.478-0.04-0.709-0.119L264.84,963.083
					c-0.733-0.254-1.272-0.879-1.419-1.639L88.605,55.277c-0.129-0.665,0.059-1.349,0.511-1.855
					c0.451-0.504,1.097-0.773,1.785-0.717c193.567,14.894,362.996,41.407,503.58,78.807
					c112.55,29.942,206.99,66.895,280.698,109.833c125.936,73.365,147.436,137.926,148.289,140.639
					c0.072,0.226,0.104,0.464,0.099,0.701l-19.869,833.452c-0.017,0.692-0.364,1.336-0.932,1.73
					C1002.397,1218.122,1001.966,1218.253,1001.529,1218.253z M267.442,959.395l731.991,253.669l19.789-830.094
					c-1.799-5.022-26.52-68.334-146.944-138.295c-73.424-42.656-167.506-79.385-279.631-109.163
					C453.149,98.463,285.198,72.133,93.401,57.246L267.442,959.395z"/>
			</g>
			<g>
				<path style="fill:#FFFFFF;" d="M1021.399,388.575c0,0-107.337-241.783-949.267-320.104l193.418,892.561l735.98,255.053
					L1021.399,388.575z"/>
				<path style="fill:#231F20;" d="M1001.529,1218.253c-0.239,0-0.478-0.04-0.709-0.119L264.84,963.083
					c-0.716-0.248-1.249-0.851-1.41-1.59L70.013,68.93c-0.146-0.675,0.038-1.38,0.498-1.897c0.457-0.514,1.124-0.783,1.823-0.722
					c192.157,17.877,361.681,45.841,503.861,83.12c113.814,29.842,210.481,65.689,287.312,106.549
					c131.227,69.785,158.766,129.22,159.873,131.717c0.13,0.292,0.193,0.609,0.186,0.932l-19.869,827.511
					c-0.017,0.69-0.364,1.334-0.932,1.728C1002.397,1218.122,1001.966,1218.253,1001.529,1218.253z M267.41,959.384l732.023,253.68
					l19.785-824.021c-2.71-5.454-33.863-63.522-158.501-129.635c-76.582-40.624-172.925-76.279-286.358-105.975
					C433.291,116.501,265.257,88.738,74.878,70.905L267.41,959.384z"/>
			</g>
			<g>
				<path style="fill:#FFFFFF;" d="M1010.162,402.834c0,0-98.816-218.46-946.502-314.859l201.889,873.058l735.98,255.053
					L1010.162,402.834z"/>
				<path style="fill:#231F20;" d="M1001.529,1218.253c-0.239,0-0.478-0.04-0.709-0.119L264.84,963.083
					c-0.705-0.246-1.234-0.834-1.404-1.56L61.547,88.463c-0.159-0.686,0.025-1.406,0.495-1.933c0.465-0.523,1.158-0.807,1.863-0.71
					c193.457,22,363.64,52.255,505.818,89.923c113.81,30.154,210.053,65.104,286.055,103.879
					c129.849,66.249,155.338,120.058,156.358,122.317c0.129,0.288,0.197,0.601,0.193,0.917l-8.632,813.252
					c-0.009,0.697-0.349,1.349-0.921,1.749C1002.408,1218.118,1001.97,1218.253,1001.529,1218.253z M267.391,959.377
					l732.002,253.673l8.594-809.722c-2.617-5.105-31.939-57.659-155.082-120.304C638.052,173.726,307.285,118.013,66.464,90.476
					L267.391,959.377z"/>
			</g>
		</g>
		<g>
			<g>
				<path style="fill:#FFFFFF;" d="M94.633,112.617l-43.562,13.733l26.43,110.356l832.101,147.468l18.217-28.547
					C927.818,355.628,419.891,116.308,94.633,112.617z"/>
				<path style="fill:#231F20;" d="M909.601,386.343c-0.125,0-0.252-0.011-0.379-0.034L77.123,238.841
					c-0.849-0.15-1.529-0.79-1.73-1.628L48.962,126.857c-0.265-1.107,0.37-2.232,1.457-2.575l43.563-13.733
					c0.222-0.068,0.495-0.064,0.677-0.1c168.32,1.91,386.162,67.951,539.273,123.018c165.817,59.636,293.539,119.601,294.81,120.2
					c0.566,0.264,0.987,0.76,1.161,1.359c0.171,0.599,0.08,1.243-0.256,1.768l-18.218,28.546
					C911.026,385.973,910.333,386.343,909.601,386.343z M79.281,234.82l829.272,146.966l16.107-25.239
					c-17.733-8.239-138.613-63.765-292.236-119.014c-152.68-54.911-369.81-120.757-537.469-122.743l-41.306,13.022L79.281,234.82z"
					/>
			</g>
			<g>
				<path style="fill:#FFFFFF;" d="M941.124,384.175l-22.252-25.455c0,0-232.774-154.927-867.802-232.369l6.834-23.229
					c0,0,592.068,51.09,911.973,261.957L941.124,384.175z"/>
				<path style="fill:#231F20;" d="M941.124,386.343c-0.606,0-1.207-0.254-1.633-0.741l-22.055-25.231
					c-4.199-2.721-63.809-40.588-195.322-86.844C596.725,229.423,378.476,168.464,50.808,128.502
					c-0.633-0.076-1.198-0.427-1.55-0.959c-0.349-0.533-0.447-1.192-0.267-1.804l6.835-23.23c0.29-0.993,1.26-1.645,2.265-1.548
					c1.482,0.127,150.297,13.232,336.277,51.939c311.112,64.754,485.332,150.14,576.703,210.367c0.606,0.4,0.972,1.08,0.974,1.806
					c0.002,0.729-0.362,1.408-0.968,1.811l-28.754,19.096C941.956,386.224,941.539,386.343,941.124,386.343z M53.872,124.509
					c181.087,22.186,443.419,65.304,669.956,145.022c136.251,47.948,195.661,86.995,196.245,87.384
					c0.161,0.106,0.305,0.233,0.432,0.377l21.002,24.026l24.435-16.23c-91.774-59.907-265.082-143.959-572.404-207.93
					C218.719,120.77,76.797,107.037,59.483,105.44L53.872,124.509z"/>
			</g>
		</g>
		<g>
			<g>
				<path style="fill:#FFFFFF;" d="M1015.839,382.633c0,0,68.994-262.02,917.046-327.272l-161.197,905.671l-735.98,255.053
					L1015.839,382.633z"/>
				<path style="fill:#231F20;" d="M1035.708,1218.253c-0.436,0-0.868-0.131-1.236-0.387c-0.567-0.394-0.915-1.037-0.932-1.73
					l-19.87-833.452c-0.004-0.203,0.019-0.407,0.072-0.604c0.713-2.708,18.883-67.202,141.488-140.476
					c71.735-42.87,164.606-79.77,276.033-109.672c139.172-37.351,307.885-63.839,501.454-78.733
					c0.675-0.059,1.323,0.207,1.774,0.707c0.451,0.498,0.646,1.175,0.527,1.834l-161.196,905.672
					c-0.138,0.775-0.682,1.412-1.425,1.671l-735.98,255.052C1036.187,1218.213,1035.948,1218.253,1035.708,1218.253z
					 M1018.013,382.915l19.791,830.149l731.972-253.663l160.483-901.661c-191.786,14.885-359.028,41.185-497.124,78.18
					c-110.989,29.733-203.495,66.395-274.949,108.971c-63.519,37.848-98.276,73.45-116.248,96.653
					C1023.862,364.879,1018.688,380.671,1018.013,382.915z"/>
			</g>
			<g>
				<path style="fill:#FFFFFF;" d="M1021.399,388.575c0,0,74.427-254.853,922.479-320.104l-172.19,892.561l-735.98,255.053
					L1021.399,388.575z"/>
				<path style="fill:#231F20;" d="M1035.708,1218.253c-0.438,0-0.872-0.133-1.243-0.392c-0.569-0.398-0.912-1.044-0.925-1.738
					l-14.309-827.511c-0.004-0.218,0.026-0.436,0.087-0.646c0.771-2.636,20.276-65.37,144.219-136.853
					c72.518-41.825,166.011-77.89,277.884-107.197c139.73-36.603,308.725-62.715,502.29-77.608c0.692-0.059,1.336,0.214,1.785,0.717
					c0.451,0.506,0.639,1.19,0.51,1.855l-172.19,892.563c-0.146,0.76-0.686,1.385-1.418,1.639l-735.98,255.052
					C1036.187,1218.213,1035.948,1218.253,1035.708,1218.253z M1023.573,388.895l14.25,824.163l731.971-253.663L1941.21,70.85
					c-191.767,14.883-359.272,40.806-497.918,77.06c-111.442,29.14-204.58,64.978-276.827,106.52
					c-64.229,36.934-99.693,71.62-118.133,94.215C1029.857,371.286,1024.327,386.62,1023.573,388.895z"/>
			</g>
			<g>
				<path style="fill:#FFFFFF;" d="M1035.708,388.575c0,0,71.553-231.872,913.483-310.193l-177.503,882.65l-735.98,255.053V388.575z
					"/>
				<path style="fill:#231F20;" d="M1035.708,1218.253c-0.445,0-0.885-0.137-1.257-0.402c-0.572-0.407-0.911-1.065-0.911-1.766
					v-827.51c0-0.216,0.032-0.432,0.095-0.639c0.741-2.401,19.556-59.581,142.045-126.986
					c71.646-39.426,164.184-74.134,275.04-103.155c138.471-36.252,306.113-63.695,498.269-81.572
					c0.714-0.059,1.357,0.201,1.813,0.709c0.459,0.511,0.65,1.207,0.514,1.878l-177.503,882.652c-0.152,0.754-0.69,1.37-1.416,1.622
					l-735.98,255.052C1036.187,1218.213,1035.948,1218.253,1035.708,1218.253z M1037.876,388.933v824.105l731.931-253.648
					l176.683-878.578c-190.287,17.82-356.407,45.049-493.771,80.941c-110.449,28.858-202.657,63.346-274.064,102.507
					c-63.492,34.823-98.423,66.958-116.545,87.785C1044.015,372.845,1038.634,386.792,1037.876,388.933z"/>
			</g>
			<g>
				<path style="fill:#FFFFFF;" d="M1047.803,388.575c0,0,63.294-204.201,910.98-300.601l-187.095,873.058l-735.98,255.053
					L1047.803,388.575z"/>
				<path style="fill:#231F20;" d="M1035.708,1218.253c-0.451,0-0.896-0.14-1.27-0.411c-0.574-0.415-0.909-1.082-0.898-1.789
					l12.095-827.51c0.004-0.208,0.036-0.413,0.097-0.61c0.656-2.119,17.485-52.638,138.682-115.433
					c70.85-36.711,162.992-70.014,273.862-98.986c138.494-36.19,306.805-65.694,500.26-87.694c0.703-0.082,1.385,0.182,1.852,0.697
					c0.468,0.516,0.659,1.228,0.513,1.912l-187.095,873.06c-0.158,0.741-0.692,1.345-1.41,1.595l-735.98,255.052
					C1036.187,1218.213,1035.948,1218.253,1035.708,1218.253z M1049.964,388.958l-12.043,824.066l731.904-253.64L1956.03,90.47
					c-240.643,27.507-568.158,81.932-768.492,185.295C1071.769,335.498,1051.459,384.909,1049.964,388.958z"/>
			</g>
		</g>
		<g>
			<g>
				<path style="fill:#FFFFFF;" d="M1939.599,113.693l43.164,13.609l-26.189,109.349l-824.513,146.124l-18.051-28.287
					C1114.01,354.488,1617.306,117.349,1939.599,113.693z"/>
				<path style="fill:#231F20;" d="M1132.062,384.943c-0.733,0-1.425-0.37-1.827-1.001l-18.051-28.288
					c-0.337-0.525-0.427-1.169-0.256-1.768c0.174-0.599,0.595-1.095,1.161-1.359c1.258-0.595,127.818-60.013,292.123-119.105
					c151.715-54.563,367.576-120.003,534.362-121.896c0.261,0.027,0.46,0.032,0.678,0.1l43.163,13.608
					c1.086,0.343,1.721,1.467,1.457,2.575l-26.188,109.346c-0.201,0.841-0.881,1.48-1.73,1.63l-824.512,146.125
					C1132.314,384.933,1132.187,384.943,1132.062,384.943z M1117.17,355.406l15.94,24.981l821.685-145.623l25.387-106.001
					l-40.906-12.897c-166.138,1.969-381.299,67.221-532.596,121.635C1254.525,292.223,1134.812,347.209,1117.17,355.406z"/>
			</g>
			<g>
				<path style="fill:#FFFFFF;" d="M1100.826,382.775l22.049-25.223c0,0,230.651-153.514,859.888-230.25l-10.1-24.18
					c0,0-597.42,46.724-890.425,257.591L1100.826,382.775z"/>
				<path style="fill:#231F20;" d="M1100.826,384.943c-0.006,0-0.013,0-0.019,0c-0.633-0.007-1.232-0.288-1.639-0.771
					l-18.589-22.063c-0.39-0.461-0.567-1.065-0.493-1.664c0.074-0.599,0.394-1.141,0.885-1.493
					c151.669-109.151,386.027-173.486,555.922-208.234c183.984-37.633,334.104-49.642,335.599-49.759
					c0.969-0.072,1.81,0.464,2.17,1.325l10.1,24.181c0.261,0.627,0.214,1.34-0.127,1.927c-0.341,0.586-0.938,0.981-1.612,1.061
					c-179.207,21.856-440.077,64.525-665.177,143.698c-130.296,45.829-189.365,83.347-193.538,86.051l-21.851,25
					C1102.046,384.672,1101.451,384.943,1100.826,384.943z M1085.407,361.108l15.449,18.338l20.386-23.323
					c0.127-0.144,0.271-0.271,0.432-0.377c0.578-0.385,59.449-39.078,194.46-86.591c124.113-43.673,339.875-103.991,663.523-143.658
					l-8.389-20.086c-16.445,1.378-159.888,14.041-333.56,49.564C1468.961,189.494,1236.495,253.244,1085.407,361.108z"/>
			</g>
		</g>
		<g>
			<path style="fill:#FFFFFF;" d="M954.036,347.348l-53.052,21.721c0,0,4.593,35.442,69.818,57.503
				c65.226,22.062,151.742-37.414,151.997-61.01C1122.8,365.563,1045.659,339.104,954.036,347.348z"/>
			<path style="fill:#231F20;" d="M1001.732,433.592c-10.739,0-21.404-1.509-31.623-4.965
				c-65.751-22.239-71.081-57.777-71.275-59.278c-0.125-0.976,0.419-1.914,1.33-2.287l53.051-21.72
				c0.201-0.08,0.411-0.133,0.627-0.152c91.043-8.188,168.887,18.057,169.662,18.322c0.885,0.305,1.476,1.141,1.465,2.075
				c-0.099,9.23-11.114,22.512-29.463,35.528C1071.981,417.799,1036.479,433.592,1001.732,433.592z M903.49,370.386
				c0.79,2.981,3.191,9.846,9.88,18.108c8.326,10.282,25.167,24.877,58.129,36.025c26.084,8.825,73.558,7.06,121.498-26.944
				c15.617-11.078,26.115-22.789,27.484-30.488c-11.544-3.665-83.193-24.988-165.925-17.609L903.49,370.386z"/>
		</g>
		<g>
			<g>
				<path style="fill:#FFFFFF;" d="M887.298,355.22c0,0,115.393-45.573,245.728,6.175l-9.709,11.462
					c0,0-101.269-43.066-222.332-3.788L887.298,355.22z"/>
				<path style="fill:#231F20;" d="M1123.317,375.026c-0.286,0-0.574-0.057-0.849-0.174c-1.006-0.425-101.972-42.278-220.814-3.72
					c-0.775,0.259-1.635,0.047-2.21-0.538l-13.687-13.85c-0.513-0.519-0.73-1.26-0.58-1.972c0.15-0.713,0.648-1.302,1.325-1.569
					c1.162-0.46,117.689-45.291,247.323,6.176c0.648,0.258,1.133,0.813,1.302,1.491c0.17,0.676,0.002,1.393-0.449,1.927
					l-9.708,11.462C1124.549,374.757,1123.939,375.026,1123.317,375.026z M1005.988,350.498c62.51,0,108.006,16.399,116.683,19.768
					l6.74-7.957c-115.156-44.547-219.061-12.804-238.186-6.201l10.366,10.489C938.99,354.628,974.636,350.498,1005.988,350.498z"/>
			</g>
			<g>
				<g>
					<path style="fill:#FFFFFF;" d="M922.593,449.594l-35.295-94.374c0,0-529.37-189.611-854.835-210.867l186.626,879.739
						c0,0,542.015,133.806,718.325,266.689L922.593,449.594z"/>
					<path style="fill:#231F20;" d="M937.415,1292.951c-0.462,0-0.921-0.148-1.305-0.436
						c-173.941-131.098-712.125-264.98-717.54-266.319c-0.809-0.199-1.429-0.843-1.603-1.654L30.341,144.802
						c-0.14-0.663,0.038-1.355,0.483-1.867c0.442-0.515,1.082-0.773,1.781-0.745c322.044,21.034,850.128,209.092,855.424,210.989
						c0.601,0.216,1.078,0.684,1.3,1.281l35.294,94.374c0.087,0.231,0.134,0.477,0.138,0.722l14.822,841.188
						c0.015,0.828-0.445,1.595-1.184,1.97C938.088,1292.872,937.751,1292.951,937.415,1292.951z M220.93,1022.315
						c14.434,3.606,144.27,36.324,291.863,83.224c142.066,45.144,329.74,112.922,422.376,180.873l-14.737-836.408l-34.81-93.081
						c-25.373-9.009-535.231-188.754-850.442-210.216L220.93,1022.315z"/>
				</g>
				<g>
					<path style="fill:#FFFFFF;" d="M1097.06,449.594l35.295-94.374c0,0,529.37-189.611,854.835-210.867l-186.626,879.739
						c0,0-542.015,133.806-718.325,266.689L1097.06,449.594z"/>
					<path style="fill:#231F20;" d="M1082.238,1292.951c-0.336,0-0.674-0.079-0.984-0.237c-0.739-0.375-1.198-1.141-1.184-1.97
						l14.821-841.188c0.004-0.246,0.051-0.491,0.138-0.722l35.294-94.374c0.222-0.597,0.699-1.065,1.3-1.281
						c5.296-1.897,533.38-189.955,855.424-210.989c0.701-0.024,1.338,0.231,1.781,0.745c0.445,0.512,0.622,1.204,0.483,1.867
						l-186.627,879.74c-0.173,0.811-0.796,1.455-1.602,1.654c-5.414,1.338-543.599,135.221-717.54,266.319
						C1083.158,1292.802,1082.699,1292.951,1082.238,1292.951z M1099.221,450.004l-14.737,836.408
						c92.633-67.951,280.31-135.729,422.376-180.873c147.59-46.9,277.429-79.62,291.863-83.224l185.75-875.607
						c-315.211,21.461-825.069,201.207-850.442,210.216L1099.221,450.004z"/>
				</g>
				<g>
					<path style="fill:#FFFFFF;" d="M1018.133,407.04c-17.216,0.493-34.523-1.011-50.026-4.015
						c-13.591-2.633-26.646-7.652-38.725-14.382c-7.495-4.176-14.61-9.016-21.338-14.335c-3.841-3.036-20.527-14.243-20.746-19.088
						c0.001,0.01,41.353,915.91,41.353,915.91s7.257,55.031,81.651,52.248c74.394,2.784,81.651-52.248,81.651-52.248
						s41.353-915.91,41.352-915.91c-17.864,18.872-39.397,34.824-64.143,43.328C1053.645,403.883,1035.937,406.529,1018.133,407.04z
						"/>
					<path style="fill:#231F20;" d="M1004.815,1325.647c-70.333,0.002-78.242-53.678-78.314-54.233
						c-38.845-860.22-41.217-912.723-41.363-915.977c-0.002-0.04-0.004-0.08-0.006-0.121h0.002
						c-0.004-0.091-0.004-0.095-0.004-0.097c0-1.179,0.942-2.14,2.119-2.168c0.017,0,0.034,0,0.049,0
						c1.156,0,2.113,0.911,2.166,2.071c0.087,1.953,5.719,7.036,16.736,15.108c1.368,1.002,2.488,1.823,3.189,2.378
						c6.86,5.423,13.941,10.181,21.047,14.142c12.357,6.884,25.172,11.646,38.083,14.148c15.878,3.077,33.006,4.449,49.553,3.975
						l0.062,2.168l-0.062-2.168c18.572-0.531,35.996-3.428,50.385-8.372c22.385-7.695,43.646-22.057,63.2-42.693
						c0.337-0.783,0.843-0.775,1.696-0.754c0.023,0.002,0.049,0.002,0.072,0.004l0,0c0.004,0,0.009,0,0.013,0h0.002
						c0.009,0,0.017,0.002,0.026,0.002c0,0,0.004,0,0.012,0h0.002c0.009,0.002,0.017,0.002,0.026,0.002l0,0
						c0.347,0.034,0.675,0.148,0.961,0.328c0,0.004,0.002,0.002,0.006,0.007c0.002,0,0.009-0.002,0.006,0.004
						c0.082,0.051,0.159,0.108,0.231,0.172c0,0,0,0,0.006,0.004c0.002,0.002,0.002,0.002,0.002,0.002
						c0.004,0.002,0.006,0.008,0.011,0.008c0,0.002,0.002,0.002,0.002,0.002c0.246,0.214,0.443,0.485,0.574,0.798
						c0.127,0.305,0.18,0.627,0.165,0.944c-0.17,3.727-41.353,915.896-41.353,915.896c-0.089,0.737-8.01,54.415-78.483,54.419
						c-1.768,0-3.568-0.034-5.414-0.104C1008.381,1325.613,1006.577,1325.647,1004.815,1325.647z M889.803,362.613
						c3.856,85.416,39.417,873.068,41.014,908.42c0.276,1.978,8.016,52.833,79.404,50.178c71.796,2.674,79.514-49.833,79.582-50.364
						l40.872-905.436c0.078-1.773,0.148-3.291,0.214-4.591c-18.96,19-39.464,32.371-61.021,39.78
						c-14.799,5.088-32.667,8.063-51.673,8.609c-16.867,0.477-34.316-0.921-50.502-4.055c-13.363-2.589-26.609-7.508-39.367-14.619
						c-7.309-4.071-14.586-8.959-21.627-14.527c-0.673-0.532-1.749-1.32-3.062-2.28
						C897.657,369.344,892.964,365.696,889.803,362.613z"/>
				</g>
			</g>
		</g>
	</g>
	<g>
		<g>
			<g>
				<g>
					<g>
						<path style="fill:#FFFFFF;" d="M1022.805,1637.111c0,0-63.365-261.182-909.343-326.273l155.011,917.148l734.18,254.429
							L1022.805,1637.111z"/>
						<path style="fill:#CED5CB;" d="M1002.653,2484.577c-0.239,0-0.477-0.04-0.708-0.118l-734.179-254.428
							c-0.747-0.26-1.293-0.906-1.424-1.684l-155.011-917.15c-0.111-0.656,0.087-1.328,0.536-1.818
							c0.447-0.492,1.096-0.756,1.762-0.698c193.098,14.857,361.112,41.271,499.378,78.509
							c110.705,29.815,202.719,66.603,273.487,109.343c120.969,73.058,137.758,137.367,138.413,140.07
							c0.044,0.184,0.065,0.372,0.06,0.56l-20.153,845.304c-0.016,0.691-0.361,1.333-0.928,1.726
							C1003.518,2484.446,1003.088,2484.577,1002.653,2484.577z M270.393,2226.362L1000.56,2479.4l20.076-842.032
							c-0.605-2.166-5.416-17.926-23.027-41.245c-17.462-23.123-51.431-58.607-114.088-96.333
							c-70.486-42.439-162.134-78.987-272.396-108.628c-137.203-36.883-303.745-63.108-495.069-77.956L270.393,2226.362z"/>
					</g>
					<g>
						<path style="fill:#FFFFFF;" d="M1022.474,1651c0,0-82.41-261.875-928.388-326.967l174.387,903.952l734.18,254.429
							L1022.474,1651z"/>
						<path style="fill:#CED5CB;" d="M1002.653,2484.577c-0.239,0-0.477-0.04-0.708-0.118l-734.179-254.428
							c-0.73-0.253-1.269-0.877-1.415-1.635L91.963,1324.444c-0.128-0.662,0.061-1.347,0.51-1.849
							c0.449-0.504,1.115-0.765,1.78-0.718c193.095,14.858,362.109,41.307,502.347,78.615
							c112.274,29.868,206.484,66.732,280.01,109.565c125.629,73.185,147.075,137.588,147.927,140.294
							c0.071,0.226,0.104,0.462,0.098,0.699l-19.821,831.414c-0.016,0.691-0.361,1.333-0.928,1.726
							C1003.518,2484.446,1003.088,2484.577,1002.653,2484.577z M270.36,2226.351l730.2,253.049l19.742-828.064
							c-1.796-5.01-26.455-68.166-146.584-137.956c-73.246-42.553-167.098-79.191-278.947-108.897
							c-139.155-36.959-306.695-63.223-498.023-78.074L270.36,2226.351z"/>
					</g>
					<g>
						<path style="fill:#FFFFFF;" d="M1022.474,1656.928c0,0-107.075-241.191-946.946-319.321l192.945,890.379l734.18,254.429
							L1022.474,1656.928z"/>
						<path style="fill:#CED5CB;" d="M1002.653,2484.577c-0.238,0-0.477-0.04-0.708-0.118l-734.179-254.428
							c-0.713-0.247-1.245-0.849-1.405-1.586L73.415,1338.065c-0.147-0.674,0.037-1.377,0.494-1.893
							c0.457-0.516,1.125-0.791,1.82-0.719c191.688,17.832,360.797,45.729,502.628,82.916
							c113.537,29.768,209.966,65.528,286.611,106.286c130.906,69.614,158.376,128.905,159.482,131.395
							c0.13,0.292,0.193,0.608,0.185,0.929l-19.821,825.487c-0.016,0.688-0.361,1.331-0.928,1.723
							C1003.518,2484.446,1003.088,2484.577,1002.653,2484.577z M270.33,2226.341l730.231,253.06l19.738-822.006
							c-2.705-5.441-33.781-63.365-158.115-129.319c-76.395-40.523-172.503-76.09-285.658-105.714
							c-140.723-36.841-308.347-64.536-498.259-82.326L270.33,2226.341z"/>
					</g>
					<g>
						<path style="fill:#FFFFFF;" d="M1011.265,1671.151c0,0-98.575-217.925-944.186-314.089l201.395,870.923l734.18,254.429
							L1011.265,1671.151z"/>
						<path style="fill:#CED5CB;" d="M1002.653,2484.577c-0.238,0-0.477-0.04-0.708-0.118l-734.179-254.428
							c-0.703-0.245-1.232-0.833-1.399-1.557L64.972,1357.549c-0.159-0.684,0.025-1.402,0.493-1.926
							c0.468-0.524,1.158-0.797,1.858-0.71c192.985,21.947,362.751,52.127,504.581,89.705
							c113.532,30.079,209.54,64.943,285.356,103.625c129.53,66.086,154.957,119.765,155.976,122.018
							c0.13,0.287,0.195,0.6,0.193,0.914l-8.613,811.263c-0.008,0.695-0.349,1.346-0.918,1.745
							C1003.528,2484.442,1003.093,2484.577,1002.653,2484.577z M270.311,2226.334l730.21,253.053l8.576-807.742
							c-2.613-5.092-31.862-57.517-154.703-120.009c-214.329-109.033-544.287-164.609-784.517-192.079L270.311,2226.334z"/>
					</g>
				</g>
				<g>
					<g>
						<path style="fill:#E6E7E8;" d="M97.975,1381.645l-43.455,13.7l26.365,110.085l830.066,147.108l18.172-28.477
							C929.123,1624.061,422.437,1385.326,97.975,1381.645z"/>
						<path style="fill:#BDC4BC;" d="M910.951,1654.701c-0.125,0-0.251-0.011-0.377-0.034L80.508,1507.56
							c-0.848-0.151-1.526-0.789-1.727-1.626l-26.366-110.085c-0.264-1.104,0.371-2.225,1.453-2.566l43.455-13.701
							c0.219-0.068,0.453-0.078,0.675-0.101c167.909,1.905,385.22,67.786,537.955,122.717
							c165.412,59.491,292.823,119.309,294.09,119.906c0.562,0.265,0.983,0.759,1.156,1.357c0.173,0.597,0.08,1.239-0.255,1.764
							l-18.171,28.477C912.373,1654.332,911.681,1654.701,910.951,1654.701z M82.658,1503.549l827.247,146.607l16.066-25.177
							c-17.691-8.219-138.274-63.61-291.52-118.723c-152.309-54.776-368.907-120.461-536.156-122.444l-41.204,12.99L82.658,1503.549
							z"/>
					</g>
					<g>
						<path style="fill:#FFFFFF;" d="M942.396,1652.538l-22.198-25.393c0,0-232.204-154.547-865.678-231.801l6.817-23.173
							c0,0,590.62,50.965,909.742,261.317L942.396,1652.538z"/>
						<path style="fill:#CED5CB;" d="M942.398,1654.701c-0.606,0-1.205-0.254-1.63-0.74l-22.002-25.169
							c-4.19-2.714-63.653-40.49-194.845-86.634c-125.083-43.995-342.798-104.805-669.664-144.667
							c-0.631-0.077-1.197-0.428-1.545-0.959c-0.349-0.531-0.448-1.189-0.268-1.798l6.818-23.173
							c0.292-0.986,1.246-1.638,2.261-1.544c1.477,0.127,149.93,13.198,335.454,51.814
							c310.351,64.595,484.146,149.772,575.292,209.851c0.606,0.399,0.972,1.076,0.973,1.802c0.001,0.727-0.361,1.405-0.966,1.806
							l-28.683,19.05C943.227,1654.583,942.81,1654.701,942.398,1654.701z M57.315,1393.508
							c180.644,22.132,442.332,65.144,668.315,144.667c135.919,47.83,195.184,86.782,195.767,87.17
							c0.159,0.106,0.304,0.233,0.43,0.377l20.951,23.967l24.375-16.189c-91.557-59.766-264.455-143.62-571.056-207.433
							c-174.386-36.296-315.92-49.99-333.186-51.58L57.315,1393.508z"/>
					</g>
				</g>
				<g>
					<g>
						<path style="fill:#FFFFFF;" d="M1016.928,1651c0,0,68.825-261.379,914.803-326.472l-160.802,903.457l-734.18,254.429
							L1016.928,1651z"/>
						<path style="fill:#CED5CB;" d="M1036.749,2484.577c-0.436,0-0.866-0.131-1.234-0.386c-0.567-0.393-0.912-1.035-0.928-1.726
							l-19.821-831.414c-0.005-0.203,0.018-0.406,0.07-0.602c0.712-2.701,18.838-67.038,141.142-140.132
							c71.56-42.766,164.203-79.575,275.358-109.406c138.83-37.258,307.132-63.682,500.229-78.54
							c0.656-0.059,1.32,0.209,1.769,0.706c0.449,0.495,0.643,1.171,0.526,1.83l-160.802,903.457
							c-0.137,0.773-0.68,1.409-1.421,1.667l-734.179,254.428C1037.226,2484.537,1036.988,2484.577,1036.749,2484.577z
							 M1019.098,1651.282l19.743,828.118l730.18-253.042l160.091-899.457c-191.317,14.849-358.15,41.086-495.909,77.989
							c-110.717,29.66-202.996,66.234-274.275,108.706c-63.364,37.756-98.036,73.271-115.965,96.416
							C1024.931,1633.289,1019.771,1649.042,1019.098,1651.282z"/>
					</g>
					<g>
						<path style="fill:#FFFFFF;" d="M1022.474,1656.928c0,0,74.245-254.229,920.223-319.321l-171.769,890.379l-734.18,254.429
							L1022.474,1656.928z"/>
						<path style="fill:#CED5CB;" d="M1036.749,2484.577c-0.438,0-0.872-0.133-1.239-0.391c-0.568-0.397-0.911-1.041-0.924-1.734
							l-14.275-825.486c-0.003-0.218,0.025-0.436,0.087-0.644c0.767-2.63,20.226-65.211,143.865-136.519
							c72.342-41.722,165.607-77.699,277.204-106.933c139.39-36.514,307.971-62.561,501.064-77.419
							c0.665-0.059,1.331,0.214,1.78,0.718c0.449,0.502,0.638,1.187,0.51,1.849l-171.769,890.379
							c-0.147,0.758-0.685,1.382-1.415,1.635l-734.179,254.428C1037.226,2484.537,1036.987,2484.577,1036.749,2484.577z
							 M1024.643,1657.242l14.217,822.151l730.181-253.042l170.995-886.369c-191.654,14.873-359.012,40.8-497.473,77.071
							c-111.224,29.137-204.131,64.967-276.138,106.496c-63.928,36.87-99.157,71.469-117.453,94.001
							C1030.767,1639.97,1025.382,1654.999,1024.643,1657.242z"/>
					</g>
					<g>
						<path style="fill:#FFFFFF;" d="M1036.749,1656.928c0,0,71.378-231.304,911.249-309.434l-177.069,880.492l-734.18,254.429
							V1656.928z"/>
						<path style="fill:#CED5CB;" d="M1036.749,2484.577c-0.443,0-0.883-0.137-1.255-0.401c-0.569-0.406-0.908-1.062-0.908-1.761
							v-825.487c0-0.216,0.033-0.431,0.096-0.638c0.739-2.395,19.507-59.434,141.696-126.675
							c71.472-39.33,163.783-73.953,274.368-102.904c138.131-36.162,305.362-63.54,497.05-81.371c0.694-0.066,1.351,0.2,1.809,0.706
							c0.458,0.509,0.646,1.203,0.513,1.874l-177.07,880.493c-0.151,0.752-0.689,1.366-1.412,1.618l-734.179,254.428
							C1037.226,2484.537,1036.987,2484.577,1036.749,2484.577z M1038.912,1657.285v822.09l730.139-253.028l176.252-876.43
							c-189.822,17.776-355.534,44.941-492.561,80.744c-110.178,28.788-202.162,63.192-273.393,102.257
							c-63.339,34.737-98.184,66.794-116.262,87.571C1045.035,1641.236,1039.667,1655.149,1038.912,1657.285z"/>
					</g>
					<g>
						<path style="fill:#FFFFFF;" d="M1048.814,1656.928c0,0,63.139-203.702,908.752-299.866l-186.638,870.923l-734.18,254.429
							L1048.814,1656.928z"/>
						<path style="fill:#CED5CB;" d="M1036.749,2484.577c-0.449,0-0.894-0.139-1.268-0.41c-0.571-0.414-0.906-1.079-0.896-1.785
							l12.065-825.487c0.003-0.207,0.036-0.411,0.097-0.608c0.655-2.114,17.443-52.509,138.342-115.151
							c70.679-36.621,162.594-69.844,273.194-98.744c138.154-36.102,306.055-65.533,499.038-87.48
							c0.683-0.079,1.379,0.181,1.846,0.696c0.468,0.516,0.659,1.225,0.513,1.906l-186.639,870.925
							c-0.158,0.739-0.692,1.341-1.406,1.591l-734.179,254.428C1037.226,2484.537,1036.987,2484.577,1036.749,2484.577z
							 M1050.972,1657.31l-12.015,822.05l730.112-253.02l185.752-866.789c-240.053,27.44-566.77,81.732-766.612,184.842
							C1072.722,1603.98,1052.463,1653.271,1050.972,1657.31z"/>
					</g>
				</g>
				<g>
					<g>
						<path style="fill:#E6E7E8;" d="M1938.429,1382.717l43.058,13.576l-26.125,109.082l-822.497,145.766l-18.006-28.217
							C1114.859,1622.924,1616.925,1386.366,1938.429,1382.717z"/>
						<path style="fill:#BDC4BC;" d="M1132.866,1653.305c-0.73,0-1.422-0.369-1.823-0.999l-18.007-28.218
							c-0.335-0.525-0.427-1.167-0.256-1.764c0.173-0.598,0.595-1.092,1.157-1.357c1.255-0.591,127.505-59.865,291.41-118.814
							c151.344-54.43,366.676-119.71,533.056-121.598c0.243,0.004,0.458,0.031,0.675,0.1l43.059,13.575
							c1.082,0.341,1.717,1.462,1.453,2.567l-26.125,109.082c-0.201,0.837-0.879,1.475-1.727,1.627l-822.497,145.766
							C1133.117,1653.295,1132.991,1653.305,1132.866,1653.305z M1118.01,1623.841l15.902,24.919l819.678-145.267l25.326-105.743
							l-40.808-12.865c-165.721,1.965-380.339,67.05-531.256,121.326C1255.063,1560.799,1135.614,1615.663,1118.01,1623.841z"/>
					</g>
					<g>
						<path style="fill:#FFFFFF;" d="M1101.707,1651.141l21.995-25.161c0,0,230.087-153.138,857.785-229.687l-10.075-24.121
							c0,0-595.958,46.609-888.247,256.961L1101.707,1651.141z"/>
						<path style="fill:#CED5CB;" d="M1101.706,1653.305c-0.006,0-0.012,0-0.02,0c-0.631-0.006-1.227-0.287-1.634-0.768
							l-18.542-22.009c-0.389-0.462-0.567-1.063-0.492-1.66c0.074-0.598,0.394-1.137,0.883-1.489
							c151.298-108.885,385.083-173.062,554.562-207.726c183.534-37.538,333.288-49.519,334.78-49.636
							c0.937-0.079,1.805,0.461,2.165,1.324l10.075,24.12c0.261,0.624,0.215,1.336-0.127,1.921c-0.34,0.585-0.935,0.977-1.607,1.059
							c-178.767,21.801-439.002,64.367-663.55,143.347c-129.977,45.716-188.901,83.143-193.065,85.841l-21.799,24.938
							C1102.924,1653.035,1102.331,1653.305,1101.706,1653.305z M1086.325,1629.528l15.411,18.294l20.337-23.265
							c0.126-0.143,0.27-0.27,0.43-0.377c0.578-0.384,59.306-38.983,193.986-86.377c123.808-43.569,339.043-103.738,661.901-143.31
							l-8.369-20.036c-16.406,1.375-159.498,14.006-332.744,49.444C1468.943,1458.333,1237.045,1521.928,1086.325,1629.528z"/>
					</g>
				</g>
			</g>
			<path style="fill:#CECDCD;" d="M1953.994,1373.729l3.247-15.156c-89.098,10.232-177.646,26.255-265.543,43.186
				c-136.965,26.384-271.209,66.269-402.385,113.386c-1.165,0.418-1.901-1.416-0.833-1.977
				c42.077-22.109,86.384-39.383,131.446-54.333c-14.053,3.514-28.103,7.042-42.129,10.663
				c-88.883,22.949-178.342,50.417-254.719,102.949c-0.87,0.599-2.107-0.607-1.479-1.479c10.527-14.633,24.09-26.613,38.718-37.027
				c27.312-19.445,58.204-34.084,88.297-48.656c9.15-4.43,18.399-8.775,27.763-12.878c-58.887,19.845-117.598,45.731-164.562,86.953
				c-1.068,0.938-2.383-0.453-1.53-1.529c14.517-18.315,32.465-33.247,51.879-46.12c12.656-8.392,25.732-16.261,39.034-23.79
				c-122.269,62.002-164.778,122.69-178.393,149.189c0,0-25.212-103.663-255.372-196.651c2.388,1.73,4.788,3.441,7.167,5.183
				c5.06,3.704,10.323,7.097,15.514,10.614c20.829,14.112,41.122,28.995,61.326,43.982c20.14,14.94,40.203,29.989,60.651,44.507
				c1.127,0.8,0.162,2.511-1.091,1.868c-11.798-6.054-23.734-11.833-35.746-17.451c-21.717-10.158-43.667-19.804-65.55-29.595
				c-0.323-0.144-0.644-0.291-0.967-0.435c13.405,12.965,26.002,26.758,37.55,41.477c0.766,0.976-0.161,2.221-1.31,1.698
				c-31.643-14.397-63.652-27.99-96.039-40.629c-56.071-21.881-113.251-40.911-171.308-56.796c-0.775-0.212-1.555-0.409-2.331-0.621
				c29.953,9.851,59.517,20.95,88.601,32.879c47.187,19.354,94.616,42.619,132.152,77.82c0.912,0.856-0.265,2.303-1.311,1.698
				c-28.195-16.298-58.856-27.568-89.959-36.913c-27.4-8.233-55.198-15.041-82.752-22.726
				c-29.468-8.219-58.288-18.473-87.513-27.489c-30.333-9.359-61.031-18.019-92.215-24.073c-5.632-1.093-11.329-2.011-17.046-2.89
				c37.84,10.13,75.997,21.735,107.919,44.765c0.934,0.674,0.408,2.382-0.833,1.977c-35.768-11.677-72.09-21.551-108.608-30.58
				c-64.195-15.872-128.812-30.167-193.541-43.674c-57.317-11.959-115.322-23.136-173.931-25.641l-1.744,5.929l26.365,110.085
				l21.379,3.789l166.21,718.766l734.179,254.429l17.109-712.531l16.987,712.531l734.18-254.429l153.687-717.161l30.747-5.449
				l26.125-109.082l-10.075-24.121C1971.412,1372.172,1965.292,1372.651,1953.994,1373.729z"/>
			<path style="fill:#CECDCD;" d="M1851.207,1405c-78.807,11.694-156.942,27.8-234.115,47.556
				c-81.464,20.854-162.824,41.913-243.627,65.227c-38.408,11.082-76.973,21.855-115.171,33.637
				c-36.583,11.284-72.6,24.868-105.075,45.429c-1.087,0.688-2.094-0.821-1.31-1.698c31.67-35.473,72.953-62.615,116.352-82.094
				c-62.914,18.534-114.636,61.206-172.453,90.97c-0.753,0.387-1.967-0.276-1.589-1.222c6.858-17.129,18.607-31.244,31.835-43.818
				c-19.319,8.871-33.288,26.413-48.687,40.564c-0.621,0.57-1.966,0.233-1.846-0.765c1.691-14.112,7.271-27.392,14.574-39.667
				c-40.343,33.616-59.083,62.02-67.291,77.992c0,0-16.323-66.989-142.272-141.569c3.966,5.106,7.86,10.269,11.675,15.487
				c8.753,11.971,17.583,24.027,25.404,36.632c8.396,13.531,15.63,29.052,13.674,45.384c-0.087,0.725-0.618,1.195-1.369,1.043
				c-11.7-2.376-22.662-7.258-33.241-12.668c-9.35-4.782-18.495-9.943-28.067-14.28c-11.115-5.036-22.396-9.7-33.78-14.095
				c-7.081-2.734-14.209-5.337-21.355-7.893c11.749,10.183,22.65,21.379,32.814,32.776c0.851,0.953-0.21,2.203-1.31,1.699
				c-6.166-2.828-12.408-5.479-18.722-7.956c-24.892-9.768-50.656-17.17-76.501-23.936c-26.905-7.043-53.852-13.955-80.813-20.78
				c-56.375-14.272-112.993-27.613-169.95-39.364c-57.203-11.802-114.846-21.225-172.219-32.136
				c-28.918-5.5-57.816-11.103-86.736-16.589c-27.013-5.123-54.118-11.177-81.463-14.21c-23.61-2.619-47.371-3.551-70.98-6.188
				c-9.531-1.065-19.103-2.374-28.551-4.243l21.844,91.207l21.379,3.789l166.21,718.766l734.179,254.429l17.109-712.531
				l16.987,712.531l734.18-254.429l153.687-717.161l30.747-5.449l26.125-109.082l-2.559-6.127
				C1936.207,1393.714,1893.604,1398.709,1851.207,1405z"/>
			<g>
				<path style="fill:#B0B1AB;" d="M955.277,1615.802l-52.922,21.669c0,0,4.581,35.355,69.647,57.363
					c65.067,22.008,151.371-37.323,151.625-60.86C1123.627,1633.972,1046.676,1607.578,955.277,1615.802z"/>
				<path style="fill:#98988C;" d="M1002.854,1701.835c-10.712,0-21.351-1.506-31.545-4.953
					c-65.591-22.187-70.905-57.636-71.099-59.133c-0.126-0.974,0.418-1.91,1.325-2.281l52.921-21.667
					c0.199-0.083,0.411-0.133,0.625-0.153c90.807-8.171,168.474,18.013,169.246,18.279c0.883,0.302,1.471,1.136,1.461,2.069
					c-0.099,9.207-11.087,22.457-29.392,35.441C1072.932,1686.08,1037.517,1701.835,1002.854,1701.835z M904.854,1638.784
					c0.789,2.974,3.182,9.822,9.855,18.064c8.304,10.255,25.105,24.814,57.986,35.937c26.023,8.802,73.379,7.047,121.199-26.877
					c15.581-11.051,26.054-22.734,27.419-30.414c-11.518-3.657-82.988-24.91-165.519-17.566L904.854,1638.784z"/>
			</g>
			<path style="fill:#B0B1AB;" d="M948.295,1647.562c-1.38-9.098-2.629-18.215-3.812-27.341l-42.128,17.249
				c0,0,3.761,29.016,52.846,50.838C952.676,1674.765,950.362,1661.182,948.295,1647.562z"/>
			<path style="fill:#B0B1AB;" d="M1054.475,1618.713c-1.73,23.927-2.867,47.892-3.505,71.872
				c40.064-14.358,72.501-42.197,72.657-56.613C1123.627,1633.972,1096.118,1624.545,1054.475,1618.713z"/>
			<g>
				<g>
					<path style="fill:#E3E2D8;" d="M888.702,1623.654c0,0,115.111-45.461,245.127,6.161l-9.686,11.434
						c0,0-101.021-42.961-221.788-3.779L888.702,1623.654z"/>
					<path style="fill:#C9C7B6;" d="M1124.141,1643.411c-0.284,0-0.571-0.057-0.845-0.173c-1.003-0.424-101.72-42.173-220.274-3.711
						c-0.773,0.256-1.63,0.047-2.206-0.536l-13.653-13.816c-0.51-0.517-0.728-1.256-0.578-1.966c0.15-0.711,0.646-1.299,1.322-1.567
						c1.159-0.456,117.404-45.183,246.72,6.163c0.647,0.257,1.131,0.81,1.3,1.485c0.169,0.676,0.002,1.392-0.448,1.923
						l-9.687,11.433C1125.373,1643.143,1124.763,1643.411,1124.141,1643.411z M1007.101,1618.943
						c62.358,0,107.742,16.359,116.397,19.72l6.725-7.938c-114.81-44.411-218.512-12.769-237.604-6.185l10.34,10.462
						C940.267,1623.065,975.826,1618.943,1007.101,1618.943z"/>
				</g>
				<g>
					<g>
						<path style="fill:#0061A1;" d="M1095.742,1717.797l35.208-94.143c0,0,528.075-189.147,852.745-210.351l-186.171,877.587
							c0,0-540.689,133.479-716.568,266.037L1095.742,1717.797z"/>
						<path style="fill:#263B76;" d="M1080.957,2559.09c-0.335,0-0.672-0.078-0.982-0.236c-0.737-0.374-1.196-1.139-1.181-1.965
							l14.785-839.129c0.004-0.245,0.051-0.49,0.138-0.721l35.207-94.142c0.223-0.597,0.697-1.064,1.295-1.279
							c5.284-1.893,532.078-189.491,853.334-210.473c0.677-0.051,1.332,0.233,1.775,0.744c0.443,0.511,0.621,1.202,0.481,1.864
							l-186.17,877.588c-0.172,0.809-0.792,1.451-1.597,1.649c-5.403,1.335-542.271,134.89-715.784,265.665
							C1081.876,2558.941,1081.418,2559.09,1080.957,2559.09z M1097.898,1718.207l-14.701,834.36
							c92.409-67.783,279.625-135.397,421.343-180.429c147.23-46.785,276.749-79.425,291.149-83.02l185.296-873.465
							c-314.442,21.409-823.051,200.714-848.363,209.702L1097.898,1718.207z"/>
					</g>
					<path style="opacity:0.62;fill:#0067AB;" d="M1130.95,1623.654l-35.208,94.143l-14.785,839.13
						c175.879-132.558,716.568-266.037,716.568-266.037l186.171-877.587C1659.026,1434.507,1130.95,1623.654,1130.95,1623.654z
						 M1836.945,1712.762c-11.973,56.446-26.469,112.307-40.327,168.307c-10.945,44.224-22.805,88.378-37.535,131.507
						c-14.466,42.352-32.002,83.931-55.424,122.167c-22.946,37.459-51.722,71.346-86.717,98.071
						c-26.455,20.203-56.459,36.226-86.309,50.778c-33.816,16.486-69.246,31.032-106.134,38.952
						c-29.805,6.399-64.889,9.615-92.317-6.537c-31.681-18.657-38.906-58.807-40.036-92.646
						c-1.354-40.555,5.908-80.479,10.304-120.623c6.405-58.502,15.359-116.597,27.219-174.249
						c11.57-56.247,24.928-112.356,42.458-167.069c15.752-49.164,36.302-98.391,69.4-138.603
						c27.472-33.378,63.189-58.714,101.824-77.638c28.257-13.842,57.923-24.482,88.068-33.467
						c17.974-7.315,36.362-13.625,55.007-18.987c21.957-6.314,44.277-11.34,66.781-15.266c10.977-1.916,21.998-3.523,33.044-4.984
						c2.306-0.305,4.6-0.68,6.89-1.083c0.832-0.213,1.667-0.415,2.499-0.63c0.256-0.066,0.473-0.025,0.665,0.056
						c6.408-1.195,12.794-2.519,19.286-3.236c9.294-1.027,19.419-1.266,28.131,2.65c7.702,3.461,12.425,10.296,15.137,18.081
						c6.273,18.007,3.573,37.557,2.537,56.135C1858.232,1601.125,1848.71,1657.299,1836.945,1712.762z"/>
					<path style="fill:#0067AB;" d="M1607.04,2308.459c-37.183,8.69-74.083,18.553-110.79,29.064
						c-32.28,9.243-64.767,18.186-96.069,30.417c-30.548,11.936-60.544,25.357-91.759,35.521
						c-28.417,9.251-58.962,16.565-89.023,12.969c-11.868-1.419-23.96-5.406-32.663-13.93c-7.532-7.377-11.533-17.34-13.48-27.546
						c-2.238-11.733-2.204-23.79-2.124-35.687c0.12-17.898-0.238-35.794-0.246-53.694c-0.037-81.332,3.532-162.643,9.789-243.728
						c5.404-70.031,12.285-140.139,20.874-209.86c7.07-57.392,17.147-116.747,44.644-168.334
						c27.09-50.825,74.883-86.466,123.953-114.609c4.234-2.428,8.506-4.785,12.796-7.108
						c-146.096,43.791-251.991,81.719-251.991,81.719l-35.208,94.143l-14.785,839.13
						c175.879-132.558,716.568-266.037,716.568-266.037l2.857-13.465C1735.215,2282.011,1670.591,2293.606,1607.04,2308.459z"/>
					<path style="opacity:0.62;fill:#0067AB;" d="M1114.426,2309.968c2.539-84.801,5.427-169.519,10.715-254.204
						c5.297-84.812,12.344-169.516,21.196-254.031c6.578-62.793,1.605-138.156,49.474-186.575
						c8.383-8.48,17.633-16.05,27.403-22.933c-57.359,18.929-92.262,31.43-92.262,31.43l-35.208,94.143l-14.785,839.13
						c11.482-8.654,24.531-17.311,38.87-25.936C1108.822,2457.967,1112.222,2383.56,1114.426,2309.968z"/>
					<g>
						<path style="fill:#0067AB;" d="M923.91,1717.797l-35.208-94.143c0,0-528.075-189.147-852.745-210.351l186.17,877.587
							c0,0,540.689,133.479,716.569,266.037L923.91,1717.797z"/>
						<path style="fill:#263B76;" d="M938.696,2559.09c-0.461,0-0.919-0.148-1.302-0.436
							c-173.518-130.779-710.382-264.33-715.785-265.665c-0.805-0.198-1.424-0.841-1.597-1.649l-186.17-877.588
							c-0.14-0.662,0.037-1.353,0.48-1.864c0.443-0.511,1.096-0.798,1.775-0.744c321.256,20.982,848.051,208.581,853.334,210.473
							c0.599,0.214,1.073,0.682,1.296,1.279l35.207,94.142c0.087,0.231,0.133,0.476,0.138,0.721l14.786,839.129
							c0.014,0.826-0.444,1.591-1.181,1.965C939.368,2559.011,939.032,2559.09,938.696,2559.09z M223.963,2289.118
							c14.4,3.595,143.919,36.235,291.149,83.02c141.719,45.032,328.935,112.646,421.344,180.429l-14.702-834.36l-34.725-92.853
							c-25.312-8.987-533.921-188.293-848.363-209.702L223.963,2289.118z"/>
					</g>
					<path style="opacity:0.62;fill:#0067AB;" d="M923.91,1717.797l-35.208-94.143c0,0-528.075-189.147-852.745-210.351
						l186.171,877.587c0,0,540.689,133.479,716.568,266.037L923.91,1717.797z M827.445,2100.719
						c-0.943,7.204-2.036,14.386-3.289,21.54c-11.532,65.892-40.806,135.209-109.176,157.431
						c-31.196,10.139-64.777,10.873-97.257,9.321c-39.22-1.874-78.408-6.526-116.628-15.665
						c-71.668-17.138-139.068-53.586-189.51-107.722c-56.805-60.965-76.909-135.781-98.101-214.059
						c-21.422-79.13-43.801-159.643-57.291-240.58c-10.03-53.3-31.956-130.491-4.095-181.59
						c14.628-26.829,47.03-26.167,73.449-22.455c16.007,2.249,31.836,5.621,47.81,8.098c17.893,2.775,35.77,5.658,53.614,8.738
						c38.724,6.683,77.307,14.287,115.494,23.585c39.159,9.533,77.942,20.827,115.703,34.96
						c36.575,13.689,72.302,30.056,105.6,50.539c41.06,25.257,75.91,53.075,100.506,94.847
						c24.454,41.53,40.135,87.827,49.806,134.898C829.999,1940.089,837.78,2021.754,827.445,2100.719z"/>
					<path style="fill:#0067AB;" d="M582.099,1537.622c59.467,22.214,120.528,43.93,173.234,80.124
						c24.681,16.95,53.072,34.068,64.368,61.912c59.794,147.382,56.53,548.766,56.562,592.223
						c0.013,17.852-0.376,35.671,1.14,53.472c1.354,15.895,3.147,31.862,2.448,47.838c-0.572,13.072-2.699,27.035-10.888,37.677
						c-7.11,9.241-17.499,14.877-28.698,17.597c-25.88,6.286-53.639,0.347-79.399-3.731c-17.271-2.734-34.686-3.851-52.083-5.51
						c-20.976-2-41.929-4.23-62.87-6.556c-8.056-0.894-16.11-1.81-24.163-2.725c125.311,43.886,248.64,95.503,316.945,146.985
						l-14.785-839.13l-35.208-94.143c0,0-197.142-70.61-424.573-130.384C503.572,1507.692,542.734,1522.917,582.099,1537.622z"/>
					<path style="fill:#0067AB;" d="M861.12,1646.152c14.214,32.12,19.335,67.731,22.579,102.437
						c3.517,37.645,5.053,75.497,7.745,113.208c6.595,92.387,14.777,184.664,20.126,277.138c2.669,46.149,4.633,92.346,5.33,138.569
						c0.69,45.754,0.503,91.507,1.435,137.261c0.882,43.328,2.1,86.65,3.148,129.974c6.05,4.061,11.821,8.125,17.212,12.188
						l-14.785-839.13l-35.208-94.143c0,0-21.488-7.695-58.441-20.152C843.021,1615.78,853.908,1629.854,861.12,1646.152z"/>
					<g>
						<path style="fill:#A11821;" d="M1019.217,1675.347c-17.174,0.492-34.438-1.008-49.903-4.004
							c-13.557-2.627-26.581-7.634-38.631-14.347c-7.476-4.165-14.574-8.994-21.286-14.3c-3.831-3.029-20.476-14.208-20.695-19.042
							c0,0.01,41.251,913.671,41.251,913.671s7.239,54.896,81.451,52.119c74.211,2.777,81.451-52.119,81.451-52.119
							s41.251-913.671,41.251-913.671c-17.82,18.826-39.301,34.739-63.986,43.223
							C1054.642,1672.198,1036.978,1674.838,1019.217,1675.347z"/>
						<path style="fill:#263B76;" d="M1005.933,2591.708c-70.161,0.002-78.05-53.547-78.123-54.1
							c-38.752-858.116-41.117-910.491-41.261-913.736c-0.003-0.041-0.005-0.081-0.008-0.121h0.002
							c-0.004-0.092-0.004-0.094-0.004-0.097c0-1.175,0.939-2.136,2.115-2.162c1.122-0.096,2.156,0.888,2.209,2.065
							c0.088,1.947,5.704,7.017,16.692,15.068c1.365,1.001,2.484,1.821,3.183,2.374c6.848,5.414,13.913,10.16,20.998,14.105
							c12.332,6.871,25.113,11.619,37.989,14.116c15.842,3.067,32.937,4.431,49.429,3.963l0,0c18.534-0.53,35.914-3.418,50.264-8.35
							c22.33-7.676,43.541-22.003,63.046-42.589c0.339-0.779,0.844-0.766,1.683-0.753c0.103,0.002,0.208,0.012,0.311,0.028
							c0.002,0.001,0.005,0.001,0.011,0.002c0.264,0.044,0.514,0.137,0.74,0.272c0.143,0.085,0.276,0.185,0.394,0.297
							c0,0.001,0.001,0.001,0.001,0.001c0.002,0.002,0.006,0.006,0.009,0.009c0,0,0.001,0.001,0.002,0.001
							c0.171,0.167,0.317,0.363,0.426,0.584c0.163,0.323,0.244,0.689,0.227,1.067c-0.018,0.397-41.251,913.669-41.251,913.669
							c-0.089,0.735-7.991,54.282-78.29,54.286c-1.764,0-3.559-0.034-5.403-0.103
							C1009.489,2591.675,1007.688,2591.708,1005.933,2591.708z M891.2,1631.03c3.847,85.206,39.321,870.933,40.914,906.198
							c0.273,1.973,7.967,52.679,79.209,50.055c71.589,2.613,79.319-49.708,79.388-50.241l40.771-903.224
							c0.08-1.766,0.149-3.28,0.214-4.578c-18.912,18.954-39.366,32.292-60.872,39.683c-14.757,5.073-32.582,8.041-51.545,8.586l0,0
							c-16.81,0.477-34.228-0.915-50.376-4.043c-13.326-2.581-26.539-7.488-39.272-14.581c-7.288-4.06-14.546-8.937-21.576-14.494
							c-0.671-0.53-1.746-1.316-3.057-2.277C899.032,1637.742,894.354,1634.103,891.2,1631.03z"/>
					</g>
					<path style="fill:#1F417E;" d="M1019.217,1675.347c-17.174,0.492-34.438-1.008-49.903-4.004
						c-13.557-2.627-26.581-7.634-38.631-14.347c-7.476-4.165-14.574-8.994-21.286-14.3c-3.831-3.029-20.476-14.208-20.695-19.042
						c0,0.01,41.251,913.671,41.251,913.671s7.239,54.896,81.451,52.119c74.211,2.777,81.451-52.119,81.451-52.119
						s41.251-913.671,41.251-913.671c-17.82,18.826-39.301,34.739-63.986,43.223
						C1054.642,1672.198,1036.978,1674.838,1019.217,1675.347z"/>
					<path style="fill:#0067AB;" d="M948.644,2435.05c-8.544-138.412-18.585-276.731-26.212-415.199
						c-6.901-125.299-11.782-250.754-11.85-376.253c-0.392-0.304-0.796-0.594-1.186-0.903c-3.831-3.028-20.477-14.208-20.695-19.041
						c0,0.01,41.252,913.671,41.252,913.671s3.175,23.946,26.709,39.408C954.253,2529.491,951.558,2482.263,948.644,2435.05z"/>
					<path style="fill:#0067AB;" d="M1070.12,1666.878c-15.479,5.32-33.143,7.96-50.904,8.469
						c-17.174,0.492-34.438-1.008-49.903-4.004c-13.557-2.627-26.581-7.634-38.631-14.347c-3.07-1.711-6.071-3.541-9.01-5.468
						c9.571,11.926,24.356,19.489,38.243,25.172c12.185,4.986,25.824,10.146,39.152,10.022c15.669-0.146,31.175-3.566,46.716-5.221
						c11.227-1.195,25.783-3.071,35.588,3.984c16.879,12.146,18.192,39.601,18.844,58.297c0.981,28.111-2.038,56.25-4.978,84.166
						c-1.078,10.234-2.317,20.488-2.818,30.771c-0.991,20.361-0.519,40.882-0.749,61.267c-0.545,48.587-1.167,97.173-2.063,145.755
						c-1.807,98.021-6.023,195.935-8.938,293.921c-0.731,24.622-1.435,49.245-2.217,73.865c-0.759,23.881-2.128,47.789-2.206,71.684
						c-0.067,20.832,0.718,41.873,0.428,62.836c13.997-14.396,16.179-30.721,16.179-30.721s41.251-913.671,41.251-913.67
						C1116.286,1642.48,1094.805,1658.393,1070.12,1666.878z"/>
					<path style="fill:#0067AB;" d="M1070.12,1666.878c-15.479,5.32-33.143,7.96-50.904,8.469
						c-17.174,0.492-34.438-1.008-49.903-4.004c-13.557-2.627-26.581-7.634-38.631-14.347c-7.477-4.165-14.575-8.994-21.286-14.3
						c-3.831-3.028-20.477-14.208-20.695-19.041c0,0.001,0.193,4.266,0.549,12.158c6.563,17.652,20.699,31.837,35.433,43.653
						c19.642,15.752,41.777,28.616,59.735,46.413c23.334,23.125,32.547,55.912,36.483,87.691
						c2.259,18.236,2.873,36.615,3.741,54.955c1.058,22.358,2.921,44.692,4.251,67.037c5.45,91.534,4.771,183.22,6.256,274.875
						c0.744,45.888,1.349,91.786,0.871,137.68c-0.407,38.999,2.228,80.132-8.868,117.987c-2.555,8.716-5.861,17.4-10.313,25.337
						c-3.541,6.311-8.375,12.115-13.017,17.646c-10.434,12.432-22.307,23.717-35.359,33.37c-8.899,6.581-18.78,12.617-29.214,17.157
						c10.042,14.85,30.59,31.386,72.155,29.83c74.212,2.778,81.451-52.12,81.451-52.12s41.251-913.671,41.251-913.67
						C1116.286,1642.48,1094.805,1658.393,1070.12,1666.878z"/>
				</g>
			</g>
		</g>
		<path style="fill:#73B5D6;" d="M915.083,1660.634l41.58,907.413l-24.061-813.488c0,0-0.967-48.043,14.353-50.235
			c15.32-2.192,126.305,13.636,160.752-23.682c0,0,17.941-12.086,0-8.914s-33.011,18.14-104.776,18.858
			C931.166,1691.303,915.083,1660.634,915.083,1660.634z"/>
		<path style="fill:#73B5D6;" d="M54.52,1431.619c0,0,152.544,723.384,176.944,835.336c0,0,1.436,15.788,22.964,21.53
			c0,0,378.189,104.543,467.903,150.705c0,0-110.517-62.067-281.316-111.41c-170.799-49.342-179.411-53.648-193.764-95.271
			c-14.353-41.623-163.622-765.57-163.622-765.57s-4.923-23.837,29.832-22.402c34.755,1.435,378.359,67.819,378.359,67.819
			S196.209,1427.313,54.52,1431.619z"/>
		<path style="opacity:0.53;fill:#0067AB;" d="M1960.339,1431.619c0,0-152.544,723.384-176.944,835.336
			c0,0-1.436,15.788-22.964,21.53c0,0-378.189,104.543-467.903,150.705c0,0,110.517-62.067,281.316-111.41
			c170.799-49.342,179.411-53.648,193.764-95.271c14.353-41.623,163.622-765.57,163.622-765.57s4.923-23.837-29.833-22.402
			c-34.755,1.435-378.359,67.819-378.359,67.819S1818.65,1427.313,1960.339,1431.619z"/>
	</g>
</g>
</svg>
